# xmcd CD database file
#
# Track frame offsets:
#	150
#	7585
#	31199
#	55695
#	75338
#	106809
#	126711
#	143995
#	153312
#	170167
#	188395
#	210098
#
# Disc length: 3188 seconds
#
# Revision: 2
# Processed by: cddbd v1.5.2PL0 Copyright (c) Steve Scherf et al.
# Submitted via: CDex 1.70beta2
#
DISCID=870c720c
DTITLE=Shima&ShikouDUO - Poetry
DYEAR=2009
DGENRE=Jazz
TTITLE0=暁光
TTITLE1=Little Bee's Waltz
TTITLE2=残夏
TTITLE3=黒いオルフェ
TTITLE4=Tokyo デンジャラス
TTITLE5=Spartacus Love Theme
TTITLE6=おどりば ～放課後の練習～
TTITLE7=湯気の中で
TTITLE8=Poetry
TTITLE9=L-O-V-E
TTITLE10=Over The Rainbow
TTITLE11=Close To You
EXTD=YEAR: 2009
EXTT0=
EXTT1=
EXTT2=
EXTT3=
EXTT4=
EXTT5=
EXTT6=
EXTT7=
EXTT8=
EXTT9=
EXTT10=
EXTT11=
PLAYORDER=
